<?xml version="1.0" encoding="UTF-8"?>
<svg width="249px" height="65px" viewBox="0 0 249 65" version="1.1" xmlns="http://www.w3.org/2000/svg" xmlns:xlink="http://www.w3.org/1999/xlink">
    <!-- Generator: Sketch 50.2 (55047) - http://www.bohemiancoding.com/sketch -->
    <title>signature-mediactive</title>
    <desc>Created with Sketch.</desc>
    <defs></defs>
    <g id="Page-1" stroke="none" stroke-width="1" fill="none" fill-rule="evenodd">
        <g id="signature-mediactive">
            <path d="M248.388,1.95 C248.388,0.874 247.515,0 246.438,0 L1.95,0 C0.874,0 1.42108547e-14,0.874 1.42108547e-14,1.95 L1.42108547e-14,63.051 C1.42108547e-14,64.127 0.874,65.001 1.95,65.001 L246.438,65.001 C247.515,65.001 248.388,64.127 248.388,63.051 L248.388,1.95 Z" id="Shape" fill="#EAEAE9"></path>
            <path d="M27.553,18.026 C29.809,16.841 32.514,16.795 33.687,17.706 C35.435,19.06 36.104,20.954 35.57,26.687 C35.57,26.687 34.599,33.78 36.215,35.253 C36.215,35.253 47.267,23.153 52.067,24.537 C55.65,25.571 57.017,30.254 58.669,33.184 L58.669,5.461 L5.486,5.461 L5.486,35.47 C10.544,31.216 20.19,21.895 27.553,18.026" id="Shape" fill="#F78E3E" fill-rule="nonzero"></path>
            <path d="M55.076,39.189 C53.867,34.788 53.321,33.287 53.321,33.287 C53.321,33.287 51.594,26.164 46.111,30.689 C41.684,34.341 37.165,39.96 37.165,39.96 C37.165,39.96 34.063,43.261 32.169,43.123 C32.169,43.123 28.577,43.614 29.701,36.306 C30.899,28.521 32.419,24.64 30.923,23.494 C29.601,22.483 27.295,22.244 23.583,25.32 C17.193,30.626 8.868,42.064 7.817,43.543 C7.129,44.509 6.122,45.696 5.486,46.744 L5.486,58.644 L58.669,58.644 L58.669,43.841 C56.542,43.123 55.811,41.872 55.076,39.189" id="Shape" fill="#F78E3E" fill-rule="nonzero"></path>
            <path d="M70.7680306,26.2336575 L72.1901324,26.2336575 L72.1901324,20.3754471 L74.397574,20.3754471 C76.838495,20.3754471 78.642654,18.5925135 78.642654,15.8332115 C78.642654,13.0526841 76.838495,11.3122013 74.397574,11.3122013 L70.7680306,11.3122013 L70.7680306,26.2336575 Z M72.1901324,19.1019231 L72.1901324,12.5857253 L74.2065454,12.5857253 C75.9470282,12.5857253 77.1781014,13.7955731 77.1781014,15.8332115 C77.1781014,17.8496245 75.9682536,19.1019231 74.2065454,19.1019231 L72.1901324,19.1019231 Z" id="Shape" fill="#193B49" fill-rule="nonzero"></path>
            <path d="M79.7888256,20.8636313 C79.7888256,24.0686667 81.5505338,26.4883623 84.1824834,26.4883623 C86.8568838,26.4883623 88.5973666,24.0474413 88.5973666,20.8636313 C88.5973666,17.6798213 86.8568838,15.3025765 84.2037088,15.3025765 C81.5505338,15.3025765 79.7888256,17.6585959 79.7888256,20.8636313 Z M81.2109274,20.8424059 C81.2109274,18.3378087 82.3358736,16.5548751 84.1824834,16.5548751 C86.0503186,16.5548751 87.1752648,18.3378087 87.1752648,20.8424059 C87.1752648,23.3682285 86.0503186,25.2360637 84.1824834,25.2360637 C82.3358736,25.2360637 81.2109274,23.3682285 81.2109274,20.8424059 Z" id="Shape" fill="#193B49" fill-rule="nonzero"></path>
            <path d="M92.3754878,26.2336575 L93.9673928,26.2336575 L95.8140026,18.6349643 C95.941355,18.1255547 96.0262566,17.4675673 96.0262566,17.4675673 L96.0687074,17.4675673 C96.0687074,17.4675673 96.153609,18.1255547 96.2809614,18.6349643 L98.1487966,26.2336575 L99.7194762,26.2336575 L102.372651,15.5572813 L100.993,15.5572813 L99.1463904,23.4955809 C99.019038,24.0262159 98.912911,24.6417525 98.912911,24.6417525 L98.8704602,24.6417525 C98.8704602,24.6417525 98.7855586,23.9837651 98.6582062,23.4955809 L96.7479202,15.5997321 L95.3470438,15.5997321 L93.4367578,23.4955809 C93.3306308,23.9837651 93.2245038,24.6417525 93.2245038,24.6417525 L93.2032784,24.6417525 C93.2032784,24.6417525 93.0971514,24.0049905 92.969799,23.4955809 L91.1444146,15.5572813 L89.7223128,15.5572813 L92.3754878,26.2336575 Z" id="Shape" fill="#193B49" fill-rule="nonzero"></path>
            <path d="M103.518823,20.7999551 C103.518823,24.1960191 105.131953,26.4883623 107.827579,26.4883623 C109.079878,26.4883623 110.289725,25.9365019 110.947713,25.2360637 L110.54443,24.1111175 C109.886443,24.8115557 108.9313,25.2148383 107.954931,25.2148383 C106.29935,25.2148383 104.983375,23.8351873 104.940925,20.9485329 L111.096291,20.9485329 C111.117516,20.6089265 111.138741,20.3329963 111.138741,20.0570661 C111.138741,17.6373705 110.162373,15.3025765 107.5941,15.3025765 C105.110728,15.3025765 103.518823,17.4675673 103.518823,20.7999551 Z M104.940925,19.8235867 C105.195629,17.6798213 106.150772,16.5124243 107.572874,16.5124243 C108.952525,16.5124243 109.71664,17.5524689 109.737865,19.8235867 L104.940925,19.8235867 Z" id="Shape" fill="#193B49" fill-rule="nonzero"></path>
            <path d="M113.324958,26.2336575 L114.704609,26.2336575 L114.704609,21.6065203 C114.704609,19.6113327 115.468723,16.8732561 117.272882,16.8732561 C117.463911,16.8732561 117.633714,16.8944815 117.718615,16.9157069 L117.718615,15.5148305 C117.570038,15.4723797 117.442685,15.4511543 117.272882,15.4511543 C116.105485,15.4511543 115.044215,16.6185513 114.683383,18.0194277 L114.640932,18.0194277 C114.640932,18.0194277 114.683383,17.6585959 114.683383,17.1916371 L114.683383,15.5572813 L113.324958,15.5572813 L113.324958,26.2336575 Z" id="Shape" fill="#193B49" fill-rule="nonzero"></path>
            <path d="M118.652533,20.7999551 C118.652533,24.1960191 120.265663,26.4883623 122.961289,26.4883623 C124.213588,26.4883623 125.423436,25.9365019 126.081423,25.2360637 L125.67814,24.1111175 C125.020153,24.8115557 124.06501,25.2148383 123.088642,25.2148383 C121.43306,25.2148383 120.117086,23.8351873 120.074635,20.9485329 L126.230001,20.9485329 C126.251226,20.6089265 126.272452,20.3329963 126.272452,20.0570661 C126.272452,17.6373705 125.296083,15.3025765 122.72781,15.3025765 C120.244438,15.3025765 118.652533,17.4675673 118.652533,20.7999551 Z M120.074635,19.8235867 C120.32934,17.6798213 121.284483,16.5124243 122.706584,16.5124243 C124.086235,16.5124243 124.85035,17.5524689 124.871575,19.8235867 L120.074635,19.8235867 Z" id="Shape" fill="#193B49" fill-rule="nonzero"></path>
            <path d="M127.949258,20.8848567 C127.949258,24.1960191 129.116655,26.4883623 131.536351,26.4883623 C133.10703,26.4883623 133.977272,25.5756701 134.338104,24.5356255 L134.380554,24.5356255 C134.380554,24.5356255 134.316878,24.8752319 134.316878,25.3421907 L134.316878,26.2336575 L135.654078,26.2336575 L135.654078,11.3122013 L134.274427,11.3122013 L134.274427,16.1515925 C134.274427,16.5973259 134.338104,16.9793831 134.338104,16.9793831 L134.295653,16.9793831 C133.849919,15.9393385 132.937227,15.3025765 131.663703,15.3025765 C129.265233,15.3025765 127.949258,17.5100181 127.949258,20.8848567 Z M129.37136,20.9060821 C129.37136,18.1467801 130.262827,16.5548751 131.875957,16.5548751 C133.722567,16.5548751 134.316878,18.6986405 134.316878,20.9060821 C134.316878,23.9413143 133.34051,25.2360637 131.812281,25.2360637 C130.1567,25.2360637 129.37136,23.5592571 129.37136,20.9060821 Z" id="Shape" fill="#193B49" fill-rule="nonzero"></path>
            <path d="M142.61601,26.2336575 L143.931984,26.2336575 L143.931984,25.5332193 C143.931984,25.0874859 143.868308,24.7266541 143.868308,24.7266541 L143.910759,24.7266541 C144.335267,25.8303749 145.332861,26.4883623 146.606385,26.4883623 C148.962404,26.4883623 150.342055,24.2809207 150.342055,20.8848567 C150.342055,17.5949197 149.132207,15.3025765 146.733737,15.3025765 C145.120607,15.3025765 144.314042,16.2364941 143.974435,17.1704117 L143.931984,17.1704117 C143.931984,17.1704117 143.995661,16.8095799 143.995661,16.3001703 L143.995661,11.3122013 L142.61601,11.3122013 L142.61601,26.2336575 Z M143.95321,20.9060821 C143.95321,17.8283991 144.908353,16.5548751 146.457807,16.5548751 C148.092163,16.5548751 148.898728,18.2529071 148.898728,20.9060821 C148.898728,23.6441587 147.986036,25.2360637 146.415356,25.2360637 C144.50507,25.2360637 143.95321,23.1135237 143.95321,20.9060821 Z" id="Shape" fill="#193B49" fill-rule="nonzero"></path>
            <path d="M151.785382,29.0354103 L151.339649,30.1603565 C151.339649,30.1603565 151.955186,30.6909915 152.889103,30.6909915 C154.077726,30.6909915 155.032869,29.7358485 155.478602,28.2288451 L159.341625,15.5572813 L157.898298,15.5572813 L155.669631,23.3257777 C155.542278,23.8139619 155.3937,24.4931747 155.3937,24.4931747 L155.35125,24.4931747 C155.35125,24.4931747 155.266348,23.8351873 155.11777,23.3257777 L152.804202,15.5572813 L151.318424,15.5572813 L154.799389,26.1699813 L154.33243,27.6557593 C154.035275,28.6533531 153.547091,29.4386929 152.825427,29.4386929 C152.231116,29.4386929 151.785382,29.0354103 151.785382,29.0354103 Z" id="Shape" fill="#193B49" fill-rule="nonzero"></path>
            <path d="M70.403,51.704 L72.67,51.704 L73.358,40.446 C73.434,39.351 73.358,37.772 73.358,37.772 L73.434,37.772 C73.434,37.772 73.791,39.606 74.071,40.599 L76.541,48.495 L78.936,48.495 L81.406,40.599 C81.686,39.606 82.018,37.823 82.018,37.823 L82.094,37.823 C82.094,37.823 82.043,39.351 82.094,40.446 L82.782,51.704 L85.023,51.704 L83.902,33.696 L81.253,33.696 L78.35,43.222 C78.095,44.241 77.764,45.795 77.764,45.795 L77.713,45.795 C77.713,45.795 77.382,44.241 77.102,43.222 L74.198,33.696 L71.549,33.696 L70.403,51.704 Z" id="Shape" fill="#193B49" fill-rule="nonzero"></path>
            <path d="M87.188,45.133 C87.188,49.081 89.047,52.01 92.562,52.01 C94.065,52.01 95.593,51.398 96.485,50.507 L95.848,48.673 C95.058,49.463 93.938,49.896 92.817,49.896 C91.11,49.896 89.684,48.571 89.582,45.566 L96.587,45.566 C96.612,45.107 96.638,44.725 96.638,44.343 C96.638,41.287 95.364,38.485 92.206,38.485 C89.047,38.485 87.188,41.236 87.188,45.133 Z M89.557,43.834 C89.786,41.72 90.677,40.446 92.155,40.446 C93.607,40.446 94.32,41.567 94.345,43.834 L89.557,43.834 Z" id="Shape" fill="#193B49" fill-rule="nonzero"></path>
            <path d="M98.446,45.234 C98.446,49.259 99.923,52.01 102.776,52.01 C104.533,52.01 105.578,51.016 106.036,49.819 L106.087,49.819 C106.087,49.819 106.036,50.227 106.036,50.736 L106.036,51.704 L108.278,51.704 L108.278,33.696 L105.909,33.696 L105.909,39.249 C105.909,39.733 105.96,40.191 105.96,40.191 L105.909,40.191 C105.425,39.122 104.304,38.485 102.98,38.485 C100.051,38.485 98.446,41.159 98.446,45.234 Z M100.84,45.26 C100.84,42.305 101.732,40.599 103.438,40.599 C105.323,40.599 105.985,42.891 105.985,45.285 C105.985,48.52 104.916,49.947 103.387,49.947 C101.63,49.947 100.84,48.113 100.84,45.26 Z" id="Shape" fill="#193B49" fill-rule="nonzero"></path>
            <path d="M111.258,36.243 L113.677,36.243 L113.677,33.696 L111.258,33.696 L111.258,36.243 Z M111.283,51.704 L113.652,51.704 L113.652,38.79 L111.283,38.79 L111.283,51.704 Z" id="Shape" fill="#193B49" fill-rule="nonzero"></path>
            <path d="M115.842,48.062 C115.842,50.634 117.447,51.908 119.179,51.908 C120.733,51.908 121.802,50.787 122.363,49.692 L122.414,49.692 C122.414,49.692 122.363,50.15 122.363,50.711 L122.363,51.704 L124.477,51.704 L124.477,43.553 C124.477,40.242 123.05,38.485 120.3,38.485 C118.924,38.485 117.422,38.969 116.581,39.606 L117.243,41.439 C118.007,40.93 119.128,40.522 120.045,40.522 C121.293,40.522 122.134,41.185 122.134,43.375 L122.134,43.706 L121.548,43.706 C119.332,43.706 115.842,44.241 115.842,48.062 Z M118.033,47.909 C118.033,45.642 120.223,45.438 121.573,45.438 L122.134,45.438 L122.134,46.406 C122.134,47.934 121.344,49.972 119.714,49.972 C118.67,49.972 118.033,49.055 118.033,47.909 Z" id="Shape" fill="#193B49" fill-rule="nonzero"></path>
            <path d="M126.744,45.285 C126.744,49.182 128.909,52.01 132.347,52.01 C133.977,52.01 135.404,51.373 136.193,50.558 L135.531,48.673 C134.767,49.463 133.697,49.921 132.627,49.921 C130.386,49.921 129.138,47.858 129.138,45.234 C129.138,42.535 130.437,40.573 132.627,40.573 C133.621,40.573 134.487,41.006 135.073,41.592 L135.939,39.758 C134.971,38.816 133.697,38.485 132.526,38.485 C128.883,38.485 126.744,41.414 126.744,45.285 Z" id="Shape" fill="#193B49" fill-rule="nonzero"></path>
            <path d="M138.587,46.992 C138.587,51.296 141.287,51.806 142.663,51.806 C142.943,51.806 143.325,51.78 143.427,51.755 L143.427,49.59 C143.274,49.641 143.07,49.641 142.968,49.641 C142.077,49.641 140.956,49.284 140.956,46.737 L140.956,40.93 L143.249,40.93 L143.249,38.943 L140.956,38.943 L140.956,35.25 L138.664,35.25 L138.664,38.943 L137.288,38.943 L137.288,40.93 L138.587,40.93 L138.587,46.992 Z" id="Shape" fill="#193B49" fill-rule="nonzero"></path>
            <path d="M145.439,36.243 L147.859,36.243 L147.859,33.696 L145.439,33.696 L145.439,36.243 Z M145.465,51.704 L147.833,51.704 L147.833,38.79 L145.465,38.79 L145.465,51.704 Z" id="Shape" fill="#193B49" fill-rule="nonzero"></path>
            <path d="M153.411,51.704 L156.213,51.704 L159.804,38.79 L157.334,38.79 L155.143,47.476 C154.99,48.215 154.838,49.233 154.838,49.233 L154.761,49.233 C154.761,49.233 154.634,48.189 154.456,47.476 L152.265,38.79 L149.769,38.79 L153.411,51.704 Z" id="Shape" fill="#193B49" fill-rule="nonzero"></path>
            <path d="M160.849,45.133 C160.849,49.081 162.708,52.01 166.223,52.01 C167.726,52.01 169.254,51.398 170.145,50.507 L169.509,48.673 C168.719,49.463 167.598,49.896 166.478,49.896 C164.771,49.896 163.345,48.571 163.243,45.566 L170.247,45.566 C170.273,45.107 170.298,44.725 170.298,44.343 C170.298,41.287 169.025,38.485 165.866,38.485 C162.708,38.485 160.849,41.236 160.849,45.133 Z M163.217,43.834 C163.447,41.72 164.338,40.446 165.815,40.446 C167.267,40.446 167.98,41.567 168.006,43.834 L163.217,43.834 Z" id="Shape" fill="#193B49" fill-rule="nonzero"></path>
            <path d="M177.201,42.713 C177.201,48.546 180.588,52.01 184.332,52.01 C186.064,52.01 187.593,51.246 188.331,50.252 L188.382,50.252 C188.382,50.252 188.331,50.634 188.331,50.965 L188.331,51.704 L190.267,51.704 L190.267,42.636 L185.963,42.636 L185.963,44.801 L188.128,44.801 L188.128,48.113 C187.363,49.157 186.064,49.717 184.715,49.717 C181.887,49.717 179.697,46.992 179.697,42.662 C179.697,38.485 181.684,35.683 184.944,35.683 C186.319,35.683 187.644,36.192 188.51,36.982 L189.554,34.944 C188.28,33.951 186.523,33.391 184.893,33.391 C180.283,33.391 177.201,37.084 177.201,42.713 Z" id="Shape" fill="#193B49" fill-rule="nonzero"></path>
            <path d="M192.942,51.704 L195.31,51.704 L195.31,46.228 C195.31,43.986 196.151,41.083 198.265,41.083 C198.545,41.083 198.774,41.108 198.851,41.134 L198.851,38.714 C198.672,38.663 198.545,38.638 198.367,38.638 C196.966,38.638 195.641,40.064 195.234,41.694 L195.183,41.694 C195.183,41.694 195.234,41.287 195.234,40.752 L195.234,38.79 L192.942,38.79 L192.942,51.704 Z" id="Shape" fill="#193B49" fill-rule="nonzero"></path>
            <path d="M199.666,45.234 C199.666,49.157 201.856,52.01 205.142,52.01 C208.428,52.01 210.593,49.131 210.593,45.234 C210.593,41.338 208.428,38.485 205.142,38.485 C201.856,38.485 199.666,41.312 199.666,45.234 Z M202.06,45.234 C202.06,42.484 203.181,40.573 205.142,40.573 C207.078,40.573 208.198,42.484 208.198,45.234 C208.198,47.96 207.078,49.921 205.142,49.921 C203.181,49.921 202.06,47.96 202.06,45.234 Z" id="Shape" fill="#193B49" fill-rule="nonzero"></path>
            <path d="M212.859,47.807 C212.859,50.532 214.006,52.01 216.272,52.01 C218.361,52.01 219.405,50.66 219.838,49.819 L219.889,49.819 C219.889,49.819 219.838,50.176 219.838,50.634 L219.838,51.704 L222.105,51.704 L222.105,38.79 L219.762,38.79 L219.762,46.1 C219.762,47.807 218.641,49.768 216.935,49.768 C215.508,49.768 215.228,48.622 215.228,47.374 L215.228,38.79 L212.859,38.79 L212.859,47.807 Z" id="Shape" fill="#193B49" fill-rule="nonzero"></path>
            <path d="M225.136,56.798 L227.505,56.798 L227.505,51.296 C227.505,50.685 227.429,50.227 227.429,50.227 L227.48,50.227 C227.963,51.398 229.186,52.01 230.434,52.01 C233.236,52.01 234.968,49.361 234.968,45.209 C234.968,41.261 233.465,38.485 230.561,38.485 C228.651,38.485 227.709,39.555 227.301,40.624 L227.25,40.624 C227.25,40.624 227.301,40.217 227.301,39.682 L227.301,38.79 L225.136,38.79 L225.136,56.798 Z M227.429,45.26 C227.429,42 228.422,40.599 230.027,40.599 C231.759,40.599 232.574,42.433 232.574,45.285 C232.574,48.24 231.631,49.947 229.976,49.947 C227.989,49.947 227.429,47.654 227.429,45.26 Z" id="Shape" fill="#193B49" fill-rule="nonzero"></path>
        </g>
    </g>
</svg>